<svg width="25" height="26" viewBox="0 0 25 26" fill="none" xmlns="http://www.w3.org/2000/svg">
<g clip-path="url(#clip0_135_1155)">
<path d="M22.2656 3.64492C21.997 3.47114 21.6898 3.36601 21.3711 3.33876C21.0523 3.31152 20.7317 3.36299 20.4375 3.48867L10.7969 7.28554C10.5686 7.37843 10.3245 7.42619 10.0781 7.42617H3.90625C3.38825 7.42617 2.89146 7.63194 2.52518 7.99822C2.1589 8.3645 1.95312 8.86129 1.95312 9.37929V9.53554H0V14.223H1.95312V14.4262C1.96536 14.936 2.17653 15.4208 2.54149 15.777C2.90646 16.1332 3.39627 16.3326 3.90625 16.3324L6.25 21.3012C6.4087 21.6358 6.65856 21.9188 6.97088 22.1178C7.2832 22.3168 7.64531 22.4237 8.01562 22.4262H9C9.51529 22.422 10.0081 22.2144 10.371 21.8486C10.7339 21.4828 10.9375 20.9883 10.9375 20.473V16.5199L20.4375 20.3168C20.6712 20.4098 20.9204 20.4575 21.1719 20.4574C21.562 20.4511 21.942 20.3317 22.2656 20.1137C22.5226 19.9401 22.7346 19.7079 22.884 19.4362C23.0335 19.1645 23.1161 18.8611 23.125 18.5512V5.25429C23.1236 4.93635 23.0445 4.62356 22.8948 4.34309C22.745 4.06263 22.529 3.82296 22.2656 3.64492ZM8.98438 9.37929V14.4262H3.90625V9.37929H8.98438ZM8.98438 20.473H8L6.07812 16.3324H8.98438V20.473ZM11.5156 14.6605C11.3301 14.5657 11.1367 14.4873 10.9375 14.4262V9.26992C11.1348 9.22922 11.3282 9.17172 11.5156 9.09804L21.1719 5.25429V18.5043L11.5156 14.6605ZM23.1719 9.92617V13.8324C23.6899 13.8324 24.1867 13.6266 24.5529 13.2604C24.9192 12.8941 25.125 12.3973 25.125 11.8793C25.125 11.3613 24.9192 10.8645 24.5529 10.4982C24.1867 10.1319 23.6899 9.92617 23.1719 9.92617Z"/>
</g>
<defs>
<clipPath id="clip0_135_1155">
<rect width="25" height="25" fill="white" transform="translate(0 0.363647)"/>
</clipPath>
</defs>
</svg>
