<svg width="25" height="26" viewBox="0 0 25 26" fill="none" xmlns="http://www.w3.org/2000/svg">
<g clip-path="url(#clip0_135_1138)">
<path d="M23.28 2.08368H1.22002C0.547326 2.08368 0 2.63101 0 3.3037V22.9236C0 23.5964 0.547326 24.1436 1.22002 24.1436H23.28C23.9527 24.1436 24.5 23.5964 24.5 22.9236V3.3037C24.5 2.63101 23.9527 2.08368 23.28 2.08368ZM20.3171 4.54861C21.0734 4.54861 21.6865 5.16173 21.6865 5.91802C21.6865 6.67437 21.0734 7.28744 20.3171 7.28744C19.5608 7.28744 18.9476 6.67437 18.9476 5.91802C18.9477 5.16173 19.5608 4.54861 20.3171 4.54861ZM15.9848 4.54861C16.7411 4.54861 17.3542 5.16173 17.3542 5.91802C17.3542 6.67437 16.7411 7.28744 15.9848 7.28744C15.2285 7.28744 14.6154 6.67437 14.6154 5.91802C14.6154 5.16173 15.2285 4.54861 15.9848 4.54861ZM11.6524 4.54861C12.4088 4.54861 13.0218 5.16173 13.0218 5.91802C13.0218 6.67437 12.4088 7.28744 11.6524 7.28744C10.8961 7.28744 10.283 6.67437 10.283 5.91802C10.283 5.16173 10.8961 4.54861 11.6524 4.54861ZM22.4583 22.102H2.04168V9.2295H22.4583V22.102Z"/>
<path d="M15.0136 11.3793H4.18286V13.5618H15.0136V11.3793Z"/>
<path d="M20.317 15.7614H4.18286V17.9439H20.317V15.7614Z"/>
</g>
<defs>
<clipPath id="clip0_135_1138">
<rect width="24.5" height="24.5" fill="white" transform="translate(0 0.863647)"/>
</clipPath>
</defs>
</svg>
